HIERARCHY
ROOT Hips
{
	OFFSET 0.000000 83.214638 0.000000
	CHANNELS 6 Xposition Yposition Zposition Xrotation Yrotation Zrotation
	JOINT Pelvis
	{
		OFFSET 0.000000 0.000000 0.000000
		CHANNELS 3 Xrotation Yrotation Zrotation
		JOINT LeftUpLeg
		{
			OFFSET 8.479700 -4.795502 -0.379100
			CHANNELS 3 Xrotation Yrotation Zrotation
			JOINT LeftLeg
			{
				OFFSET 0.024144 -32.555107 0.112900
				CHANNELS 3 Xrotation Yrotation Zrotation
				JOINT LeftFoot
				{
					OFFSET -0.024144 -32.638630 -3.012600
					CHANNELS 3 Xrotation Yrotation Zrotation
					JOINT LeftToeBase
					{
						OFFSET 0.970200 -13.225400 11.864200
						CHANNELS 3 Xrotation Yrotation Zrotation
						End Site
						{
							OFFSET 0.000000 12.319262 0.000000
						}
					}
					JOINT LFootTongue
					{
						OFFSET 1.142400 -1.059800 6.665200
						CHANNELS 3 Xrotation Yrotation Zrotation
						End Site
						{
							OFFSET 0.000000 12.319262 0.000000
						}
					}
				}
				JOINT LeftPantLeg
				{
					OFFSET 0.918482 -16.533964 -2.284700
					CHANNELS 3 Xrotation Yrotation Zrotation
					End Site
					{
						OFFSET 0.350399 24.744368 0.000000
					}
				}
			}
		}
		JOINT RightUpLeg
		{
			OFFSET -8.479700 -4.795502 -0.379100
			CHANNELS 3 Xrotation Yrotation Zrotation
			JOINT RightLeg
			{
				OFFSET -0.023144 -32.555092 0.112900
				CHANNELS 3 Xrotation Yrotation Zrotation
				JOINT RightFoot
				{
					OFFSET 0.023144 -32.638641 -3.012700
					CHANNELS 3 Xrotation Yrotation Zrotation
					JOINT RightToeBase
					{
						OFFSET -0.970200 -13.225400 11.864200
						CHANNELS 3 Xrotation Yrotation Zrotation
						End Site
						{
							OFFSET 0.000000 12.319244 0.000000
						}
					}
					JOINT RFootTongue
					{
						OFFSET -1.142200 -1.059800 6.665200
						CHANNELS 3 Xrotation Yrotation Zrotation
						End Site
						{
							OFFSET 0.000000 12.319243 0.000000
						}
					}
				}
				JOINT RightPantLeg
				{
					OFFSET -0.919482 -16.533978 -2.284800
					CHANNELS 3 Xrotation Yrotation Zrotation
					End Site
					{
						OFFSET -0.350400 24.744419 0.000000
					}
				}
			}
		}
	}
	JOINT Spine
	{
		OFFSET 0.000000 7.722000 1.166200
		CHANNELS 3 Xrotation Yrotation Zrotation
		JOINT Spine1
		{
			OFFSET 0.000000 12.024101 0.248800
			CHANNELS 3 Xrotation Yrotation Zrotation
			JOINT Spine2
			{
				OFFSET 0.000000 11.502998 -0.491200
				CHANNELS 3 Xrotation Yrotation Zrotation
				JOINT Neck
				{
					OFFSET 0.000000 18.430702 -3.123100
					CHANNELS 3 Xrotation Yrotation Zrotation
					JOINT Head
					{
						OFFSET 0.000000 9.051102 1.034000
						CHANNELS 3 Xrotation Yrotation Zrotation
						JOINT HairB
						{
							OFFSET 0.208400 24.786102 24.822300
							CHANNELS 3 Xrotation Yrotation Zrotation
							End Site
							{
								OFFSET 0.000000 32.263779 0.000000
							}
						}
						JOINT HairA
						{
							OFFSET -7.081100 24.428299 23.196600
							CHANNELS 3 Xrotation Yrotation Zrotation
							End Site
							{
								OFFSET 0.000000 32.263779 0.000000
							}
						}
						JOINT Hat
						{
							OFFSET 16.728800 15.048294 -15.439601
							CHANNELS 3 Xrotation Yrotation Zrotation
							End Site
							{
								OFFSET 0.000000 32.263779 0.000000
							}
						}
					}
				}
				JOINT LeftShoulder
				{
					OFFSET 6.197800 13.665199 -4.064700
					CHANNELS 3 Xrotation Yrotation Zrotation
					JOINT LeftArm
					{
						OFFSET 7.778100 -0.187103 -1.709300
						CHANNELS 3 Xrotation Yrotation Zrotation
						JOINT LeftForeArm
						{
							OFFSET 22.049376 0.000000 0.000000
							CHANNELS 3 Xrotation Yrotation Zrotation
							JOINT LeftHand
							{
								OFFSET 23.009392 0.000000 0.000000
								CHANNELS 3 Xrotation Yrotation Zrotation
								JOINT LeftHandThumb1
								{
									OFFSET 3.507191 -2.063065 3.133727
									CHANNELS 3 Xrotation Yrotation Zrotation
									JOINT LeftHandThumb2
									{
										OFFSET 3.101337 -1.790558 1.790558
										CHANNELS 3 Xrotation Yrotation Zrotation
										JOINT LeftHandThumb3
										{
											OFFSET 3.058640 -1.765907 1.765906
											CHANNELS 3 Xrotation Yrotation Zrotation
											End Site
											{
												OFFSET -0.415260 3.926476 -0.049563
											}
										}
									}
								}
								JOINT LeftHandIndex1
								{
									OFFSET 11.334419 -0.901459 3.706815
									CHANNELS 3 Xrotation Yrotation Zrotation
									JOINT LeftHandIndex2
									{
										OFFSET 3.283112 0.000000 0.000000
										CHANNELS 3 Xrotation Yrotation Zrotation
										JOINT LeftHandIndex3
										{
											OFFSET 3.323853 0.000000 0.000000
											CHANNELS 3 Xrotation Yrotation Zrotation
											End Site
											{
												OFFSET -1.135597 3.097809 0.402452
											}
										}
									}
								}
								JOINT LeftHandMiddle1
								{
									OFFSET 11.335861 0.000000 0.000000
									CHANNELS 3 Xrotation Yrotation Zrotation
									JOINT LeftHandMiddle2
									{
										OFFSET 3.410492 0.000000 0.000000
										CHANNELS 3 Xrotation Yrotation Zrotation
										JOINT LeftHandMiddle3
										{
											OFFSET 3.312172 0.000000 0.000000
											CHANNELS 3 Xrotation Yrotation Zrotation
											End Site
											{
												OFFSET -1.150200 3.080154 0.400270
											}
										}
									}
								}
								JOINT LeftHandRing1
								{
									OFFSET 11.514786 -0.013176 -3.003090
									CHANNELS 3 Xrotation Yrotation Zrotation
									JOINT LeftHandRing2
									{
										OFFSET 3.053307 0.000000 0.000000
										CHANNELS 3 Xrotation Yrotation Zrotation
										JOINT LeftHandRing3
										{
											OFFSET 3.295807 0.000000 0.000000
											CHANNELS 3 Xrotation Yrotation Zrotation
											End Site
											{
												OFFSET -1.281006 3.013344 0.375733
											}
										}
									}
								}
								JOINT LeftHandPinky1
								{
									OFFSET 10.518692 -0.960396 -5.730441
									CHANNELS 3 Xrotation Yrotation Zrotation
									JOINT LeftHandPinky2
									{
										OFFSET 2.861649 0.000000 0.000000
										CHANNELS 3 Xrotation Yrotation Zrotation
										JOINT LeftHandPinky3
										{
											OFFSET 2.863380 0.000000 0.000000
											CHANNELS 3 Xrotation Yrotation Zrotation
											End Site
											{
												OFFSET -0.843597 2.711159 0.369971
											}
										}
									}
								}
							}
							JOINT LSleeve
							{
								OFFSET 6.676277 -0.344902 -1.011730
								CHANNELS 3 Xrotation Yrotation Zrotation
								End Site
								{
									OFFSET 0.000000 14.885353 0.000000
								}
							}
						}
					}
				}
				JOINT RightShoulder
				{
					OFFSET -6.197800 13.665199 -4.064700
					CHANNELS 3 Xrotation Yrotation Zrotation
					JOINT RightArm
					{
						OFFSET -7.778100 -0.187103 -1.709300
						CHANNELS 3 Xrotation Yrotation Zrotation
						JOINT RightForeArm
						{
							OFFSET -22.049376 0.000000 0.000000
							CHANNELS 3 Xrotation Yrotation Zrotation
							JOINT RightHand
							{
								OFFSET -23.009392 0.000000 0.000000
								CHANNELS 3 Xrotation Yrotation Zrotation
								JOINT RightHandThumb1
								{
									OFFSET -3.507191 -2.063065 3.133727
									CHANNELS 3 Xrotation Yrotation Zrotation
									JOINT RightHandThumb2
									{
										OFFSET -3.101337 -1.790558 1.790558
										CHANNELS 3 Xrotation Yrotation Zrotation
										JOINT RightHandThumb3
										{
											OFFSET -3.058640 -1.765907 1.765906
											CHANNELS 3 Xrotation Yrotation Zrotation
											End Site
											{
												OFFSET 0.415260 3.926476 -0.049563
											}
										}
									}
								}
								JOINT RightHandIndex1
								{
									OFFSET -11.334419 -0.901459 3.706815
									CHANNELS 3 Xrotation Yrotation Zrotation
									JOINT RightHandIndex2
									{
										OFFSET -3.283112 0.000000 0.000000
										CHANNELS 3 Xrotation Yrotation Zrotation
										JOINT RightHandIndex3
										{
											OFFSET -3.323853 0.000000 0.000000
											CHANNELS 3 Xrotation Yrotation Zrotation
											End Site
											{
												OFFSET 1.135597 3.097809 0.402452
											}
										}
									}
								}
								JOINT RightHandMiddle1
								{
									OFFSET -11.335861 0.000000 0.000000
									CHANNELS 3 Xrotation Yrotation Zrotation
									JOINT RightHandMiddle2
									{
										OFFSET -3.410492 0.000000 0.000000
										CHANNELS 3 Xrotation Yrotation Zrotation
										JOINT RightHandMiddle3
										{
											OFFSET -3.312172 0.000000 0.000000
											CHANNELS 3 Xrotation Yrotation Zrotation
											End Site
											{
												OFFSET 1.150200 3.080154 0.400270
											}
										}
									}
								}
								JOINT RightHandRing1
								{
									OFFSET -11.514786 -0.013176 -3.003090
									CHANNELS 3 Xrotation Yrotation Zrotation
									JOINT RightHandRing2
									{
										OFFSET -3.053307 0.000000 0.000000
										CHANNELS 3 Xrotation Yrotation Zrotation
										JOINT RightHandRing3
										{
											OFFSET -3.295807 0.000000 0.000000
											CHANNELS 3 Xrotation Yrotation Zrotation
											End Site
											{
												OFFSET 1.281006 3.013344 0.375733
											}
										}
									}
								}
								JOINT RightHandPinky1
								{
									OFFSET -10.518692 -0.960396 -5.730441
									CHANNELS 3 Xrotation Yrotation Zrotation
									JOINT RightHandPinky2
									{
										OFFSET -2.861649 0.000000 0.000000
										CHANNELS 3 Xrotation Yrotation Zrotation
										JOINT RightHandPinky3
										{
											OFFSET -2.863380 0.000000 0.000000
											CHANNELS 3 Xrotation Yrotation Zrotation
											End Site
											{
												OFFSET 0.843597 2.711159 0.369971
											}
										}
									}
								}
							}
							JOINT RSleeve
							{
								OFFSET -6.676277 -0.344902 -1.011730
								CHANNELS 3 Xrotation Yrotation Zrotation
								End Site
								{
									OFFSET 0.000000 14.885353 0.000000
								}
							}
						}
					}
				}
				JOINT Backpack
				{
					OFFSET 0.000000 -2.471497 36.677502
					CHANNELS 3 Xrotation Yrotation Zrotation
					End Site
					{
						OFFSET 0.000000 20.427315 0.000000
					}
				}
				JOINT Hood
				{
					OFFSET 0.000000 18.754097 -10.431000
					CHANNELS 3 Xrotation Yrotation Zrotation
					JOINT Hood1
					{
						OFFSET 0.000000 -5.011002 -7.685901
						CHANNELS 3 Xrotation Yrotation Zrotation
						End Site
						{
							OFFSET 0.000000 9.175140 0.000000
						}
					}
				}
				JOINT LHoodieString
				{
					OFFSET 5.250500 16.397697 3.089900
					CHANNELS 3 Xrotation Yrotation Zrotation
					JOINT LHoodieString1
					{
						OFFSET 0.257700 -6.364304 3.694600
						CHANNELS 3 Xrotation Yrotation Zrotation
						JOINT LHoodieString2
						{
							OFFSET 0.000000 -9.643799 2.679100
							CHANNELS 3 Xrotation Yrotation Zrotation
							End Site
							{
								OFFSET 0.000000 10.009018 0.000000
							}
						}
					}
				}
				JOINT RHoodieString
				{
					OFFSET -5.250500 16.397697 3.089900
					CHANNELS 3 Xrotation Yrotation Zrotation
					JOINT RHoodieString1
					{
						OFFSET -0.257700 -6.364304 3.694600
						CHANNELS 3 Xrotation Yrotation Zrotation
						JOINT RHoodieString2
						{
							OFFSET 0.000000 -9.643799 2.679100
							CHANNELS 3 Xrotation Yrotation Zrotation
							End Site
							{
								OFFSET 0.000000 10.009018 0.000000
							}
						}
					}
				}
			}
			JOINT LBackpack_Strap
			{
				OFFSET 15.223200 -7.719803 -6.610900
				CHANNELS 3 Xrotation Yrotation Zrotation
				End Site
				{
					OFFSET 0.000000 16.040596 0.000000
				}
			}
			JOINT RBackpack_Strap
			{
				OFFSET -15.223000 -7.719803 -6.610900
				CHANNELS 3 Xrotation Yrotation Zrotation
				End Site
				{
					OFFSET 0.000000 16.040596 0.000000
				}
			}
		}
	}
	JOINT BoyFacialAnim_Joint
	{
		OFFSET 1.000000 -82.208099 -1.550900
		CHANNELS 3 Xrotation Yrotation Zrotation
		End Site
		{
			OFFSET 0.000000 30.012791 0.000000
		}
	}
}
MOTION
Frames: 4
Frame Time: 0.016667
-0.516424 75.832855 2.663303 -12.955931 -1.259953 -5.189451 0.000000 0.000000 -0.000000 -32.239548 19.987136 12.009119 42.598008 -9.385105 10.036150 -0.784274 -7.998694 -1.344686 0.000000 0.000000 -0.000000 0.000000 0.000000 -0.000000 -0.000000 -0.000000 0.000000 -23.746116 -36.458037 -2.453057 39.409338 9.581004 -10.299458 -2.877128 7.582067 -5.248708 -0.000000 -0.000002 0.000000 -0.000000 -0.000002 0.000000 -0.000000 -0.000001 0.000000 5.923490 -0.636570 2.819711 9.106088 -0.324703 -0.848842 9.111605 -0.022998 -0.851798 15.434441 0.560289 0.855191 -3.243834 0.523976 4.960276 0.000001 0.000001 -0.000000 0.000001 0.000001 -0.000000 0.000001 0.000001 -0.000000 0.689293 3.725265 -11.385282 59.736937 -63.314672 -9.099175 0.000012 -20.467432 0.000016 -19.310941 9.265444 -7.550709 21.734256 5.841486 -2.497395 -16.162755 18.936382 19.036133 -0.000001 0.000001 0.000002 0.152615 1.444581 -12.061563 0.086637 1.091014 -9.079583 -0.000001 -0.000001 -0.000002 0.152213 1.442688 -12.045573 0.086935 1.092919 -9.095572 0.000002 -0.000001 -0.000000 0.152620 1.444573 -12.061569 0.086626 1.091024 -9.079588 -0.000000 0.000002 -0.000002 0.985196 5.412791 -11.600966 0.078379 -2.964043 -9.583906 -0.000001 0.000000 0.000002 0.000000 0.000000 0.000001 1.381297 0.020058 11.778361 9.839214 40.445334 56.843242 0.000002 26.830950 -0.000010 35.425719 -10.440535 11.800212 -0.389744 -6.638717 -15.665594 8.907280 -22.771338 0.157760 0.000001 0.000001 0.000003 0.174544 -1.551245 12.839281 0.140305 -1.392661 11.506917 -0.000001 0.000000 0.000000 0.174548 -1.551257 12.839290 0.140306 -1.392645 11.506921 -0.000002 -0.000000 0.000002 0.174549 -1.551244 12.839287 0.140302 -1.392658 11.506925 -0.000000 0.000000 0.000000 0.174547 -1.551239 12.839276 0.140308 -1.392656 11.506915 0.000001 -0.000001 0.000000 0.000000 -0.000000 -0.000001 0.000001 -0.000000 0.000000 0.000001 -0.000000 0.000000 0.000001 -0.000000 0.000000 0.000001 -0.000000 0.000000 0.000001 -0.000000 0.000000 0.000001 -0.000000 -0.000000 0.000001 -0.000000 0.000000 0.000001 -0.000000 0.000000 0.000001 -0.000000 -0.000000 -0.000000 0.000000 0.000000 -0.000000 0.000000 0.000000 0.000000 0.000000 -0.000000 
-0.519491 75.836845 2.668304 -12.940546 -1.218788 -5.188889 0.000001 -0.000000 -0.000000 -32.242485 19.970063 11.993314 42.583624 -9.387076 10.035691 -0.775799 -8.006470 -1.336513 0.000000 -0.000000 0.000000 0.000000 -0.000000 -0.000000 0.000000 -0.000001 0.000000 -23.748327 -36.489644 -2.462285 39.397163 9.581861 -10.298991 -2.882807 7.572245 -5.244790 -0.000000 0.000000 0.000000 -0.000000 0.000000 0.000000 0.000000 -0.000000 -0.000000 5.919562 -0.636753 2.823524 9.101768 -0.326364 -0.858133 9.107326 -0.025738 -0.860712 15.423291 0.554961 0.870814 -3.284136 0.522454 4.912770 -0.000000 -0.000000 0.000000 -0.000000 -0.000000 0.000000 -0.000000 -0.000000 0.000000 0.689442 3.728124 -11.389586 59.635502 -63.287099 -9.181458 0.000001 -20.479451 -0.000007 -19.271232 9.284309 -7.567683 21.734258 5.841486 -2.497395 -16.162753 18.936384 19.036133 -0.000001 0.000000 0.000003 0.152621 1.444580 -12.061561 0.086633 1.091015 -9.079583 -0.000001 -0.000000 -0.000000 0.152215 1.442688 -12.045573 0.086931 1.092917 -9.095572 0.000001 0.000001 -0.000002 0.152622 1.444572 -12.061568 0.086629 1.091026 -9.079592 -0.000000 -0.000000 -0.000001 0.985198 5.412791 -11.600965 0.078379 -2.964043 -9.583906 0.000002 -0.000000 -0.000000 0.000000 0.000000 -0.000000 1.380292 0.014381 11.778444 9.844064 40.462543 56.845346 0.000015 26.845937 -0.000010 35.401171 -10.448983 11.800083 -0.389745 -6.638713 -15.665590 8.907282 -22.771337 0.157759 0.000001 -0.000003 0.000000 0.174544 -1.551245 12.839279 0.140306 -1.392662 11.506920 -0.000002 0.000000 0.000004 0.174548 -1.551256 12.839287 0.140307 -1.392645 11.506925 -0.000001 0.000001 -0.000002 0.174548 -1.551245 12.839288 0.140302 -1.392659 11.506929 -0.000001 0.000001 -0.000001 0.174547 -1.551239 12.839276 0.140309 -1.392656 11.506914 -0.000001 0.000000 -0.000001 0.000001 -0.000001 0.000001 0.000000 -0.000000 0.000000 0.000000 -0.000000 0.000000 0.000000 -0.000000 0.000000 0.000000 -0.000000 0.000000 0.000000 -0.000000 0.000000 0.000000 -0.000000 0.000000 0.000000 -0.000000 0.000000 0.000000 -0.000000 0.000000 0.000000 -0.000000 0.000000 0.000000 0.000000 -0.000000 0.000000 0.000000 -0.000000 0.000001 -0.000000 -0.000000 
-0.522559 75.840378 2.673338 -12.926779 -1.181642 -5.189063 -0.000001 -0.000000 0.000000 -32.245443 19.954213 11.980125 42.571872 -9.388398 10.035350 -0.769305 -8.014044 -1.328609 0.000000 -0.000000 0.000000 0.000000 -0.000000 0.000000 -0.000000 -0.000001 -0.000000 -23.750316 -36.525618 -2.472801 39.386194 9.582713 -10.298453 -2.888576 7.568845 -5.243446 -0.000000 0.000000 0.000000 -0.000000 0.000000 0.000000 0.000000 -0.000002 0.000000 5.916349 -0.637243 2.826835 9.098279 -0.328489 -0.866142 9.103879 -0.028798 -0.868352 15.411972 0.550058 0.886043 -3.321172 0.521828 4.868124 0.000000 -0.000000 0.000000 0.000000 -0.000000 0.000000 0.000000 -0.000000 0.000000 0.689443 3.729466 -11.390500 59.511384 -63.261957 -9.286476 -0.000003 -20.488097 0.000039 -19.229276 9.299522 -7.586340 21.734256 5.841487 -2.497395 -16.162751 18.936384 19.036133 -0.000000 -0.000000 -0.000001 0.152618 1.444580 -12.061564 0.086640 1.091014 -9.079584 -0.000002 -0.000001 -0.000004 0.152209 1.442689 -12.045574 0.086935 1.092919 -9.095574 0.000001 0.000001 -0.000001 0.152622 1.444573 -12.061568 0.086629 1.091025 -9.079589 0.000000 0.000000 -0.000002 0.985195 5.412794 -11.600965 0.078378 -2.964041 -9.583903 0.000004 0.000002 -0.000002 -0.000000 -0.000000 -0.000000 1.379338 0.009007 11.778236 9.848084 40.481162 56.846674 0.000004 26.857863 -0.000018 35.377819 -10.457183 11.798780 -0.389744 -6.638713 -15.665594 8.907283 -22.771337 0.157758 0.000001 -0.000001 -0.000000 0.174544 -1.551244 12.839275 0.140305 -1.392663 11.506923 0.000001 0.000001 0.000000 0.174547 -1.551257 12.839286 0.140307 -1.392643 11.506921 0.000002 0.000001 -0.000000 0.174549 -1.551244 12.839285 0.140302 -1.392658 11.506924 -0.000000 0.000000 -0.000001 0.174546 -1.551238 12.839279 0.140308 -1.392655 11.506914 -0.000000 -0.000001 0.000002 0.000002 -0.000000 0.000001 0.000000 -0.000000 0.000000 0.000000 -0.000000 0.000000 0.000000 -0.000000 0.000000 0.000000 -0.000000 0.000000 0.000000 -0.000000 0.000000 0.000001 -0.000000 0.000000 0.000000 -0.000000 0.000000 0.000000 -0.000000 0.000000 0.000001 -0.000000 0.000000 -0.000000 0.000000 -0.000000 -0.000000 0.000000 -0.000000 -0.000001 -0.000000 0.000000 
-0.525855 75.843864 2.678551 -12.913711 -1.145961 -5.189590 -0.000000 -0.000000 -0.000000 -32.247994 19.939259 11.968378 42.560162 -9.389730 10.034866 -0.763171 -8.021785 -1.320756 -0.000000 0.000000 0.000000 -0.000000 0.000000 -0.000000 -0.000000 0.000000 0.000000 -23.751100 -36.560261 -2.481901 39.375631 9.583462 -10.297978 -2.894604 7.564867 -5.242311 -0.000000 -0.000000 -0.000000 -0.000000 -0.000000 -0.000000 0.000000 -0.000003 0.000000 5.913450 -0.637996 2.830185 9.095247 -0.331065 -0.873291 9.100892 -0.032250 -0.875140 15.400786 0.545106 0.901279 -3.355570 0.520872 4.823728 -0.000000 -0.000000 -0.000000 -0.000000 -0.000000 -0.000000 -0.000000 -0.000000 -0.000000 0.689395 3.730280 -11.390356 59.372150 -63.239144 -9.406522 0.000002 -20.492453 0.000018 -19.183920 9.314098 -7.606357 21.734265 5.841487 -2.497395 -16.162755 18.936384 19.036133 0.000000 0.000002 0.000001 0.152620 1.444580 -12.061562 0.086637 1.091013 -9.079581 -0.000001 -0.000000 -0.000002 0.152214 1.442688 -12.045576 0.086933 1.092919 -9.095573 -0.000001 -0.000002 -0.000000 0.152627 1.444573 -12.061568 0.086629 1.091026 -9.079590 -0.000001 0.000001 -0.000000 0.985200 5.412793 -11.600968 0.078381 -2.964041 -9.583907 -0.000001 0.000001 -0.000002 0.000000 -0.000000 0.000000 1.378496 0.004378 11.777020 9.850224 40.499549 56.849000 0.000009 26.868048 -0.000019 35.355853 -10.464803 11.797755 -0.389744 -6.638712 -15.665594 8.907280 -22.771335 0.157759 0.000001 -0.000001 -0.000001 0.174544 -1.551244 12.839275 0.140304 -1.392663 11.506919 -0.000002 0.000000 0.000002 0.174549 -1.551257 12.839287 0.140302 -1.392646 11.506922 0.000001 0.000001 -0.000000 0.174548 -1.551244 12.839287 0.140302 -1.392659 11.506928 0.000000 0.000000 0.000000 0.174546 -1.551239 12.839273 0.140307 -1.392655 11.506914 -0.000001 -0.000001 0.000002 0.000001 -0.000000 -0.000001 0.000000 -0.000000 0.000000 0.000000 -0.000000 0.000000 0.000000 -0.000000 0.000000 0.000000 -0.000000 0.000000 0.000000 -0.000000 0.000000 0.000000 -0.000000 -0.000000 0.000000 -0.000000 0.000000 0.000000 -0.000000 0.000000 0.000000 -0.000000 -0.000000 0.000000 -0.000000 -0.000000 0.000000 -0.000000 -0.000000 -0.000000 -0.000000 -0.000000 
